<?xml version="1.0" standalone="no"?><!DOCTYPE svg PUBLIC "-//W3C//DTD SVG 1.1//EN" "http://www.w3.org/Graphics/SVG/1.1/DTD/svg11.dtd"><svg t="1602071444117" class="icon" viewBox="0 0 1024 1024" version="1.1" xmlns="http://www.w3.org/2000/svg" p-id="3348" xmlns:xlink="http://www.w3.org/1999/xlink" width="200" height="200"><defs><style type="text/css"></style></defs><path d="M512 542.492444a214.471111 214.471111 0 0 1-214.357333-214.357333A214.471111 214.471111 0 0 1 512 113.777778a214.471111 214.471111 0 0 1 214.357333 214.357333A214.471111 214.471111 0 0 1 512 542.492444zM512 159.288889a168.789333 168.789333 0 0 0-168.846222 168.846222A168.789333 168.789333 0 0 0 512 496.981333a168.789333 168.789333 0 0 0 168.846222-168.846222A168.789333 168.789333 0 0 0 512 159.288889z" fill="#000000" p-id="3349"></path><path d="M830.577778 874.723556a22.528 22.528 0 0 1-22.755556-22.755556c0-163.384889-132.892444-295.822222-295.822222-295.822222a296.391111 296.391111 0 0 0-295.822222 295.822222c0 12.743111-10.012444 22.755556-22.755556 22.755556a22.528 22.528 0 0 1-22.755555-22.755556c0-188.416 153.372444-341.333333 341.333333-341.333333 188.416 0 341.333333 153.372444 341.333333 341.333333 0 12.288-10.012444 22.755556-22.755555 22.755556z" fill="#000000" p-id="3350"></path></svg>