<?xml version="1.0" standalone="no"?><!DOCTYPE svg PUBLIC "-//W3C//DTD SVG 1.1//EN" "http://www.w3.org/Graphics/SVG/1.1/DTD/svg11.dtd"><svg t="1602071625779" class="icon" viewBox="0 0 1024 1024" version="1.1" xmlns="http://www.w3.org/2000/svg" p-id="6734" xmlns:xlink="http://www.w3.org/1999/xlink" width="200" height="200"><defs><style type="text/css"></style></defs><path d="M511.5648 0C230.2208 0 0 230.1952 0 511.5648c0 281.344 230.1952 511.5392 511.5648 511.5392 281.344 0 511.5392-230.1952 511.5392-511.5392C1023.104 230.2208 792.9088 0 511.5648 0z m12.8 153.472c194.9952 0 194.9952 147.072 194.9952 230.1952 0 83.1232-76.7232 236.5952-195.0208 239.7952-115.0976 0-195.0208-153.472-195.0208-239.7952 0-83.1232 0-230.1952 195.0208-230.1952z m-12.8 840.8576c-147.072 0-281.344-67.1488-370.8928-172.6464 12.8-32 28.7744-67.1488 51.1744-86.3232 47.9488-38.3744 191.8208-102.3232 191.8208-102.3232l89.5232 172.6464 15.9744-41.5488-25.5744-51.1488 51.1488-51.1744 51.1744 51.1744-22.4 54.3488 12.8 41.5488 92.7232-169.4464s143.872 63.9488 191.8208 102.3232c22.3744 15.9744 38.3744 44.7488 47.9744 70.3232-86.3232 111.8976-223.8208 182.2464-377.2672 182.2464z" p-id="6735"></path></svg>